<svg xmlns="http://www.w3.org/2000/svg" viewBox="0 0 90 24" data-testid="logo-sm" class="sc-itWPVd sc-hGnhcH izulXG cyDYXK">
    <path fill="#ffffff" d="M10.38 2.705L6.363 5.029 3.986 3.676 10.36 0l6.374 3.676-2.34 1.353-4.015-2.324zM14.413 6.971l2.34 1.353v2.705l-4.014 2.323V18l-2.34 1.352L8.057 18v-4.648L4.043 11.03V8.324l2.34-1.353 4.015 2.324 4.015-2.324z">
        </path>
    <path fill="#ffffff" d="M16.753 12.971v2.705l-2.34 1.353v-2.705l2.34-1.353z">
        </path>
    <path fill="#ffffff" d="M14.413 18.971l4.015-2.323h.019V12l2.34-1.352V18l-6.374 3.676v-2.705zM18.428 7.352L16.088 6l2.34-1.352L20.768 6v2.705l-2.34 1.352V7.352zM8.039 22.648v-2.705l2.34 1.352 2.34-1.352v2.705L10.38 24l-2.34-1.352zM6.364 17.029l-2.34-1.353v-2.705l2.34 1.353v2.705zM10.38 7.352L8.038 6l2.34-1.352L12.72 6l-2.34 1.352zM4.69 6L2.35 7.352v2.705L.01 8.705V6l2.34-1.352L4.69 6z">
        </path>
    <path fill="#ffffff" d="M.01 10.648L2.35 12h.019v4.648l4.014 2.323v2.705L.01 18v-7.352zM30.863 12.095h-4.415V2.8h4.32c1.902 0 3.063.952 3.063 2.4v.02c0 1.047-.552 1.637-1.218 2 1.066.418 1.732 1.028 1.732 2.285v.019c0 1.733-1.37 2.571-3.482 2.571zm.932-6.552c0-.61-.476-.952-1.332-.952h-2.017v1.961h1.884c.894 0 1.465-.285 1.465-.99v-.02zm.514 3.733c0-.628-.457-1.01-1.503-1.01h-2.36v2.039h2.436c.894 0 1.446-.324 1.446-1.01v-.019h-.02zm4.28 2.82V2.8h2.037v9.295H36.59zm11.284 0l-4.49-5.905v5.904h-2.017V2.8h1.883l4.358 5.733V2.8h2.017v9.295h-1.75zm10.922 0l-.856-2.077h-3.92l-.856 2.076h-2.074l3.977-9.371h1.883l3.977 9.371h-2.131zM55.979 5.2l-1.237 3.01h2.474L55.979 5.2zm12.958 6.895l-4.49-5.904v5.904h-2.018V2.8h1.884l4.357 5.733V2.8h2.017v9.295h-1.75zm8.467.172c-2.74 0-4.757-2.114-4.757-4.781v-.02c0-2.647 1.998-4.8 4.852-4.8 1.75 0 2.797.591 3.653 1.43L79.858 5.6c-.723-.648-1.446-1.048-2.378-1.048-1.56 0-2.702 1.296-2.702 2.896v.019c0 1.6 1.104 2.914 2.702 2.914 1.066 0 1.712-.419 2.435-1.086l1.294 1.315c-.951 1.01-1.998 1.657-3.805 1.657zm5.46-.172V2.8h7.003V4.63H84.9v1.885h4.376v1.829h-4.376v1.962h5.042v1.828h-7.078v-.038zm-21.234 9.41c-1.922 0-3.349-1.486-3.349-3.39 0-1.886 1.408-3.41 3.387-3.41 1.218 0 1.94.419 2.569 1.028l-.742.858c-.533-.496-1.085-.82-1.846-.82-1.256 0-2.169 1.03-2.169 2.324 0 1.296.913 2.343 2.17 2.343.798 0 1.331-.324 1.883-.857l.742.743c-.666.724-1.427 1.18-2.645 1.18zm5.328-2.895v2.78h-1.16V14.8h1.16v2.743h3.14V14.8h1.16v6.59h-1.16v-2.78h-3.14zm12.558 2.78h-1.218l-.666-1.58h-3.101l-.685 1.58h-1.18l2.892-6.628h1.066l2.892 6.629zm-3.444-5.257l-1.123 2.629h2.265l-1.142-2.629zm6.032-1.333v6.59h-1.161V14.8h1.16zm6.697 0h1.142v6.59h-.97l-3.635-4.685v4.686h-1.141V14.8h1.065l3.52 4.551V14.8h.02zM55.18 17.562H26.448v1.105H55.18v-1.105z">
        </path>
</svg>
