<svg width="30" height="30" viewBox="0 0 30 30" fill="none" xmlns="http://www.w3.org/2000/svg">
<circle cx="15" cy="15" r="15" fill="#B9B9BA"/>
<path d="M13.3939 13.5996C12.9196 13.5996 12.546 14.0153 12.546 14.5228C12.546 15.0285 12.9284 15.4459 13.3939 15.4459C13.8672 15.4459 14.2409 15.0285 14.2409 14.5228C14.2505 14.0144 13.8672 13.5996 13.3939 13.5996ZM16.4284 13.5996C15.9541 13.5996 15.5805 14.0153 15.5805 14.5228C15.5805 15.0285 15.9629 15.4459 16.4284 15.4459C16.9017 15.4459 17.2754 15.0285 17.2754 14.5228C17.2745 14.0144 16.9017 13.5996 16.4284 13.5996Z" fill="black"/>
<path d="M20.4683 6.625H9.32863C9.10433 6.62557 8.88234 6.67032 8.67534 6.75669C8.46834 6.84305 8.28037 6.96934 8.12217 7.12835C7.96398 7.28736 7.83865 7.47597 7.75334 7.68342C7.66804 7.89086 7.62443 8.11308 7.62501 8.33738V19.5759C7.62501 20.5235 8.38976 21.2883 9.32863 21.2883H18.755L18.3131 19.7491L19.378 20.7388L20.3834 21.6698L22.1719 23.25V8.33738C22.1725 8.11308 22.1288 7.89086 22.0435 7.68342C21.9582 7.47597 21.8329 7.28736 21.6747 7.12835C21.5165 6.96934 21.3286 6.84305 21.1215 6.75669C20.9145 6.67032 20.6926 6.62557 20.4683 6.625V6.625ZM17.2588 17.4811C17.2588 17.4811 16.9595 17.1241 16.711 16.8065C17.7995 16.4985 18.2151 15.8178 18.2151 15.8178C17.8739 16.0418 17.5501 16.201 17.2588 16.3095C16.198 16.7535 15.0298 16.8746 13.9005 16.6578C13.4832 16.5758 13.0743 16.4557 12.679 16.299C12.4705 16.2198 12.2679 16.1259 12.0726 16.0181C12.0473 15.9998 12.0228 15.9928 11.9983 15.9761C11.9851 15.9699 11.9735 15.9609 11.9641 15.9499C11.8145 15.8676 11.7314 15.8099 11.7314 15.8099C11.7314 15.8099 12.1304 16.4749 13.1865 16.7908C12.9371 17.1058 12.6291 17.4811 12.6291 17.4811C10.7925 17.4225 10.0951 16.2176 10.0951 16.2176C10.0951 13.541 11.2921 11.3719 11.2921 11.3719C12.4891 10.4733 13.6275 10.4986 13.6275 10.4986L13.7106 10.5984C12.2144 11.0315 11.524 11.6878 11.524 11.6878C11.524 11.6878 11.7078 11.588 12.0149 11.4471C12.9039 11.0569 13.61 10.9484 13.9014 10.923C13.9513 10.9151 13.9933 10.9064 14.0431 10.9064C15.4844 10.7121 16.95 10.9861 18.2239 11.6878C18.2239 11.6878 17.5668 11.0648 16.1536 10.6325L16.27 10.4995C16.27 10.4995 17.4093 10.4741 18.6054 11.3728C18.6054 11.3728 19.8024 13.5419 19.8024 16.2185C19.8024 16.2176 19.0963 17.4225 17.2588 17.4811V17.4811Z" fill="#2789EF"/>
</svg>
