<svg width="30" height="30" viewBox="0 0 30 30" fill="none" xmlns="http://www.w3.org/2000/svg">
<path fill-rule="evenodd" clip-rule="evenodd" d="M30 15C30 23.2843 23.2843 30 15 30C6.71573 30 0 23.2843 0 15C0 6.71573 6.71573 0 15 0C23.2843 0 30 6.71573 30 15ZM7.11951 9.52124C7.30284 9.69035 7.39646 9.9387 7.37161 10.19V19.2368C7.42601 19.5632 7.32549 19.8966 7.10084 20.1348L5 22.7429V23.0868H10.957V22.7429L8.85621 20.1348C8.62991 19.897 8.52316 19.5658 8.56676 19.2368V11.4128L13.7955 23.0868H14.4024L18.8936 11.4128V20.7176C18.8936 20.966 18.8936 21.0137 18.7348 21.1761L17.1195 22.7811V23.125H24.9626V22.7811L23.4034 21.2144C23.2657 21.107 23.1974 20.9305 23.226 20.7558V9.2442C23.1974 9.06952 23.2657 8.89303 23.4034 8.78564L25 7.21892V6.875H19.4725L15.5322 16.9345L11.0504 6.875H5.2521V7.21892L7.11951 9.52124Z" fill="white" fill-opacity="0.7"/>
</svg>
