<svg width="16" height="16" viewBox="0 0 16 16" fill="none" xmlns="http://www.w3.org/2000/svg">
<path d="M0.329 10.333C0.830791 11.9734 1.84598 13.4094 3.22513 14.4296C4.60428 15.4498 6.27453 16.0003 7.99 16C12.414 16 16 12.418 16 8C16 3.582 12.414 5.99784e-07 7.991 5.99784e-07C5.96027 -0.000784983 4.00513 0.770159 2.52146 2.15673C1.03778 3.54329 0.136464 5.44186 0 7.468L0.003 7.474L4.307 9.243C4.69518 8.98601 5.15494 8.8589 5.62 8.88L7.58 6.036L7.579 5.996C7.57979 5.18936 7.90051 4.41598 8.4708 3.8455C9.04108 3.27503 9.81436 2.95406 10.621 2.953C11.4276 2.95406 12.2009 3.27503 12.7712 3.8455C13.3415 4.41598 13.6622 5.18936 13.663 5.996C13.6627 6.40133 13.5815 6.80252 13.4242 7.17609C13.2669 7.54965 13.0367 7.88808 12.747 8.17155C12.4573 8.45503 12.1139 8.67785 11.737 8.82697C11.3601 8.97609 10.9572 9.04851 10.552 9.04L7.748 11.04C7.75751 11.4105 7.67426 11.7774 7.5058 12.1075C7.33735 12.4376 7.08905 12.7204 6.78348 12.93C6.47791 13.1397 6.12477 13.2697 5.75618 13.3081C5.38759 13.3465 5.01524 13.2922 4.673 13.15C4.34452 13.0131 4.05382 12.7992 3.82546 12.5263C3.5971 12.2533 3.43779 11.9295 3.361 11.582L0.33 10.333H0.329Z" fill="white"/>
<path d="M4.86808 12.683C5.28472 12.842 5.74691 12.8325 6.15665 12.6565C6.56639 12.4804 6.89144 12.1517 7.06288 11.74C7.23432 11.3284 7.23865 10.8661 7.07497 10.4513C6.91128 10.0364 6.59245 9.70168 6.18608 9.51799C5.78317 9.34987 5.33112 9.34271 4.92308 9.49799L5.94608 9.92199C6.09907 9.98569 6.23802 10.0789 6.35499 10.1963C6.47196 10.3137 6.56467 10.4529 6.62781 10.6062C6.69095 10.7594 6.7233 10.9235 6.723 11.0892C6.72271 11.255 6.68977 11.419 6.62608 11.572C6.56239 11.725 6.46919 11.8639 6.3518 11.9809C6.23441 12.0979 6.09513 12.1906 5.94192 12.2537C5.7887 12.3169 5.62455 12.3492 5.45883 12.3489C5.29311 12.3486 5.12907 12.3157 4.97608 12.252L3.98608 11.842C4.16624 12.2213 4.48043 12.5205 4.86808 12.682V12.683ZM8.59408 5.99599C8.59435 6.53369 8.80793 7.04932 9.18795 7.42971C9.56797 7.81011 10.0834 8.0242 10.6211 8.02499C11.1588 8.0242 11.6742 7.81011 12.0542 7.42971C12.4342 7.04932 12.6478 6.53369 12.6481 5.99599C12.6473 5.45864 12.4335 4.94353 12.0535 4.56357C11.6735 4.1836 11.1584 3.96979 10.6211 3.96899C10.0837 3.96979 9.56862 4.1836 9.18865 4.56357C8.80869 4.94353 8.59488 5.45864 8.59408 5.99599V5.99599ZM10.6241 4.46899C10.8242 4.46913 11.0224 4.50867 11.2072 4.58538C11.3921 4.66209 11.56 4.77446 11.7014 4.91607C11.8428 5.05768 11.955 5.22576 12.0315 5.41071C12.1079 5.59566 12.1472 5.79386 12.1471 5.99399C12.147 6.19413 12.1074 6.39228 12.0307 6.57713C11.954 6.76198 11.8416 6.92991 11.7 7.07133C11.5584 7.21276 11.3903 7.3249 11.2054 7.40137C11.0204 7.47784 10.8222 7.51713 10.6221 7.51699C10.2179 7.51673 9.83036 7.35591 9.54475 7.06992C9.25913 6.78392 9.09882 6.39618 9.09908 5.99199C9.09935 5.5878 9.26017 5.20027 9.54616 4.91466C9.83215 4.62904 10.2199 4.46873 10.6241 4.46899V4.46899Z" fill="white"/>
</svg>
