<svg width="30" height="30" viewBox="0 0 30 30" fill="none" xmlns="http://www.w3.org/2000/svg">
<path fill-rule="evenodd" clip-rule="evenodd" d="M15 0C6.71573 0 0 6.71573 0 15C0 23.2843 6.71573 30 15 30C23.2843 30 30 23.2843 30 15C30 6.71573 23.2843 0 15 0ZM20.3563 21.905C19.7961 22.6471 18.1025 23.2596 16.3933 23.2596C12.1456 23.2596 9.84805 21.6847 9.84805 18.3459V14.1635H8.10787C8.0684 14.1635 8.03641 14.1313 8.03641 14.0915V10.6957C8.03641 10.6648 8.05607 10.6373 8.08525 10.6275L8.27537 10.5636C9.97922 9.99047 10.8859 8.7967 11.1287 6.80683C11.1874 6.32563 11.5886 6.06604 11.9364 6.06604H16.7992C16.8387 6.06604 16.8706 6.09824 16.8706 6.13797V9.99282C16.8706 10.0325 16.9026 10.0647 16.9421 10.0647H19.7149C19.7544 10.0647 19.7864 10.0969 19.7864 10.1367V14.0915C19.7864 14.1313 19.7544 14.1635 19.7149 14.1635H16.9301C16.8907 14.1635 16.8587 14.1957 16.8587 14.2354V18.1013C16.8612 18.2605 16.8777 18.3894 16.9053 18.4948C16.9134 18.526 16.9424 18.5466 16.9744 18.5466H19.3414C19.372 18.5466 19.3993 18.5662 19.4091 18.5955L20.4685 21.7563L20.3563 21.905Z" fill="#2789EF" fill-opacity="0.7"/>
<path d="M19.3542 21.5913C18.8356 22.1019 17.7713 22.4813 16.7512 22.499C16.7127 22.4997 16.6749 22.5 16.637 22.5H16.6366C13.2815 22.4998 12.3863 19.8767 12.3863 18.3266V13.5636C12.3863 13.5243 12.3552 13.4924 12.3169 13.4924H10.6945C10.6561 13.4924 10.625 13.4606 10.625 13.4213V11.2515C10.625 11.2225 10.6427 11.1966 10.6691 11.1861C12.4031 10.4947 13.3715 9.12102 13.6262 6.99628C13.6404 6.87824 13.7355 6.875 13.7365 6.875H15.9022C15.9405 6.875 15.9716 6.90686 15.9716 6.94616V10.7597C15.9716 10.799 16.0027 10.8308 16.0411 10.8308H18.7369C18.7753 10.8308 18.8064 10.8627 18.8064 10.902V13.4213C18.8064 13.4606 18.7753 13.4924 18.7369 13.4924H16.0295C15.9911 13.4924 15.96 13.5243 15.96 13.5636L15.9601 18.0903C15.976 19.1095 16.4576 19.6262 17.3916 19.6262C17.7679 19.6262 18.1989 19.5365 18.5925 19.3825C18.6293 19.3682 18.6699 19.3873 18.6824 19.4255L19.3711 21.5164C19.3798 21.5428 19.3737 21.572 19.3542 21.5913Z" fill="white" fill-opacity="0.7"/>
<path d="M11.875 15.625H10V14.375H11.8139C11.8476 14.375 11.875 14.4066 11.875 14.4455V15.625Z" fill="white" fill-opacity="0.7"/>
</svg>
