<svg width="30" height="30" viewBox="0 0 30 30" fill="none" xmlns="http://www.w3.org/2000/svg">
<path d="M27.5719 8.68125C27.4225 8.12629 27.13 7.62029 26.7236 7.21391C26.3172 6.80752 25.8112 6.515 25.2563 6.36563C23.2125 5.8125 15 5.8125 15 5.8125C15 5.8125 6.7875 5.8125 4.74375 6.36563C4.18879 6.515 3.6828 6.80752 3.27641 7.21391C2.87003 7.62029 2.57751 8.12629 2.42813 8.68125C2.04651 10.7656 1.86133 12.8811 1.875 15C1.86133 17.1189 2.04651 19.2344 2.42813 21.3188C2.57751 21.8737 2.87003 22.3797 3.27641 22.7861C3.6828 23.1925 4.18879 23.485 4.74375 23.6344C6.7875 24.1875 15 24.1875 15 24.1875C15 24.1875 23.2125 24.1875 25.2563 23.6344C25.8112 23.485 26.3172 23.1925 26.7236 22.7861C27.13 22.3797 27.4225 21.8737 27.5719 21.3188C27.9535 19.2344 28.1387 17.1189 28.125 15C28.1387 12.8811 27.9535 10.7656 27.5719 8.68125V8.68125ZM12.375 18.9375V11.0625L19.1906 15L12.375 18.9375Z" fill="#B9B9BA"/>
</svg>
