<svg width="410" height="424" viewBox="0 0 410 424" fill="none" xmlns="http://www.w3.org/2000/svg">
<mask id="path-1-inside-1_17_41" fill="white">
<path d="M99.1152 325.247C122.074 348.086 151.807 362.881 183.871 367.422C215.935 371.963 248.608 366.005 277.005 350.439L204.904 218.904L99.1152 325.247Z"/>
</mask>
<path d="M99.1152 325.247C122.074 348.086 151.807 362.881 183.871 367.422C215.935 371.963 248.608 366.005 277.005 350.439L204.904 218.904L99.1152 325.247Z" fill="#C4C4C4" stroke="#6EE1FB" stroke-width="88" mask="url(#path-1-inside-1_17_41)"/>
<mask id="path-2-inside-2_17_41" fill="white">
<path d="M276.481 350.727C300.213 337.841 320.027 318.787 333.831 295.576C347.635 272.366 354.916 245.859 354.907 218.854L204.907 218.904L276.481 350.727Z"/>
</mask>
<path d="M276.481 350.727C300.213 337.841 320.027 318.787 333.831 295.576C347.635 272.366 354.916 245.859 354.907 218.854L204.907 218.904L276.481 350.727Z" fill="#C4C4C4" stroke="#294A7E" stroke-width="88" mask="url(#path-2-inside-2_17_41)"/>
<mask id="path-3-inside-3_17_41" fill="white">
<path d="M353.792 237.157C356.314 216.587 354.546 195.718 348.6 175.865L204.907 218.904L353.792 237.157Z"/>
</mask>
<path d="M353.792 237.157C356.314 216.587 354.546 195.718 348.6 175.865L204.907 218.904L353.792 237.157Z" fill="#C4C4C4" stroke="#9A35F6" stroke-width="88" mask="url(#path-3-inside-3_17_41)"/>
<mask id="path-4-inside-4_17_41" fill="white">
<path d="M349.426 178.725C343.874 158.758 334.246 140.158 321.147 124.098L204.907 218.904L349.426 178.725Z"/>
</mask>
<path d="M349.426 178.725C343.874 158.758 334.246 140.158 321.147 124.098L204.907 218.904L349.426 178.725Z" fill="#C4C4C4" stroke="#2B52F6" stroke-width="88" mask="url(#path-4-inside-4_17_41)"/>
<mask id="path-5-inside-5_17_41" fill="white">
<path d="M324.314 128.119C303.102 100.219 272.789 80.6279 238.639 72.7461L204.906 218.904L324.314 128.119Z"/>
</mask>
<path d="M324.314 128.119C303.102 100.219 272.789 80.6279 238.639 72.7461L204.906 218.904L324.314 128.119Z" fill="#C4C4C4" stroke="#477DE6" stroke-width="88" mask="url(#path-5-inside-5_17_41)"/>
<mask id="path-6-inside-6_17_41" fill="white">
<path d="M216.602 69.3607C194.216 67.6099 171.723 70.9071 150.782 79.009L204.906 218.904L216.602 69.3607Z"/>
</mask>
<path d="M216.602 69.3607C194.216 67.6099 171.723 70.9071 150.782 79.009L204.906 218.904L216.602 69.3607Z" fill="#C4C4C4" stroke="#7BFA91" stroke-width="88" mask="url(#path-6-inside-6_17_41)"/>
<mask id="path-7-inside-7_17_41" fill="white">
<path d="M216.602 69.3607C234.066 70.7266 251.156 75.141 267.097 82.404L204.906 218.904L216.602 69.3607Z"/>
</mask>
<path d="M216.602 69.3607C234.066 70.7266 251.156 75.141 267.097 82.404L204.906 218.904L216.602 69.3607Z" fill="#C4C4C4" stroke="#3C3DB0" stroke-width="88" mask="url(#path-7-inside-7_17_41)"/>
<mask id="path-8-inside-8_17_41" fill="white">
<path d="M151.132 78.8745C127.55 87.9304 106.637 102.795 90.3334 122.09C74.0294 141.384 62.8622 164.484 57.8677 189.246L204.906 218.904L151.132 78.8745Z"/>
</mask>
<path d="M151.132 78.8745C127.55 87.9304 106.637 102.795 90.3334 122.09C74.0294 141.384 62.8622 164.484 57.8677 189.246L204.906 218.904L151.132 78.8745Z" fill="#C4C4C4" stroke="#397A9B" stroke-width="88" mask="url(#path-8-inside-8_17_41)"/>
<mask id="path-9-inside-9_17_41" fill="white">
<path d="M58.2169 187.568C52.8461 212.711 54.0278 238.812 61.6486 263.366C69.2695 287.921 83.0736 310.104 101.736 327.788L204.907 218.904L58.2169 187.568Z"/>
</mask>
<path d="M58.2169 187.568C52.8461 212.711 54.0278 238.812 61.6486 263.366C69.2695 287.921 83.0736 310.104 101.736 327.788L204.907 218.904L58.2169 187.568Z" fill="#C4C4C4" stroke="#60C652" stroke-width="88" mask="url(#path-9-inside-9_17_41)"/>
<circle cx="204.406" cy="219.404" r="107.5" fill="#161618"/>
<path d="M165.997 202.298V203.824H163.015V212H161.237V203.824H158.255V202.298H165.997ZM173.115 208.332C173.115 208.911 173.031 209.438 172.863 209.914C172.695 210.39 172.457 210.796 172.149 211.132C171.841 211.468 171.468 211.729 171.029 211.916C170.6 212.103 170.124 212.196 169.601 212.196C169.078 212.196 168.602 212.103 168.173 211.916C167.744 211.729 167.375 211.468 167.067 211.132C166.759 210.796 166.516 210.39 166.339 209.914C166.171 209.438 166.087 208.911 166.087 208.332C166.087 207.753 166.171 207.231 166.339 206.764C166.516 206.288 166.759 205.882 167.067 205.546C167.384 205.21 167.758 204.953 168.187 204.776C168.616 204.589 169.088 204.496 169.601 204.496C170.114 204.496 170.586 204.589 171.015 204.776C171.454 204.953 171.827 205.21 172.135 205.546C172.443 205.882 172.681 206.288 172.849 206.764C173.026 207.231 173.115 207.753 173.115 208.332ZM171.379 208.332C171.379 207.604 171.22 207.03 170.903 206.61C170.595 206.181 170.161 205.966 169.601 205.966C169.041 205.966 168.602 206.181 168.285 206.61C167.977 207.03 167.823 207.604 167.823 208.332C167.823 209.069 167.977 209.653 168.285 210.082C168.602 210.511 169.041 210.726 169.601 210.726C170.161 210.726 170.595 210.511 170.903 210.082C171.22 209.653 171.379 209.069 171.379 208.332ZM174.776 202.746L176.47 202.466V204.678H179.074V206.092H176.47V209.074C176.47 209.662 176.564 210.082 176.75 210.334C176.937 210.586 177.254 210.712 177.702 210.712C178.01 210.712 178.281 210.679 178.514 210.614C178.757 210.549 178.948 210.488 179.088 210.432L179.368 211.776C179.172 211.86 178.916 211.944 178.598 212.028C178.281 212.121 177.908 212.168 177.478 212.168C176.956 212.168 176.517 212.098 176.162 211.958C175.817 211.818 175.542 211.617 175.336 211.356C175.131 211.085 174.986 210.763 174.902 210.39C174.818 210.007 174.776 209.573 174.776 209.088V202.746ZM183.288 210.81C183.81 210.81 184.207 210.782 184.478 210.726V208.85C184.384 208.822 184.249 208.794 184.072 208.766C183.894 208.738 183.698 208.724 183.484 208.724C183.297 208.724 183.106 208.738 182.91 208.766C182.723 208.794 182.55 208.845 182.392 208.92C182.242 208.995 182.121 209.102 182.028 209.242C181.934 209.373 181.888 209.541 181.888 209.746C181.888 210.147 182.014 210.427 182.266 210.586C182.518 210.735 182.858 210.81 183.288 210.81ZM183.148 204.496C183.708 204.496 184.179 204.566 184.562 204.706C184.944 204.846 185.248 205.042 185.472 205.294C185.705 205.546 185.868 205.854 185.962 206.218C186.064 206.573 186.116 206.965 186.116 207.394V211.832C185.854 211.888 185.458 211.953 184.926 212.028C184.403 212.112 183.81 212.154 183.148 212.154C182.709 212.154 182.308 212.112 181.944 212.028C181.58 211.944 181.267 211.809 181.006 211.622C180.754 211.435 180.553 211.193 180.404 210.894C180.264 210.595 180.194 210.227 180.194 209.788C180.194 209.368 180.273 209.013 180.432 208.724C180.6 208.435 180.824 208.201 181.104 208.024C181.384 207.837 181.706 207.707 182.07 207.632C182.443 207.548 182.83 207.506 183.232 207.506C183.418 207.506 183.614 207.52 183.82 207.548C184.025 207.567 184.244 207.604 184.478 207.66V207.38C184.478 207.184 184.454 206.997 184.408 206.82C184.361 206.643 184.277 206.489 184.156 206.358C184.044 206.218 183.89 206.111 183.694 206.036C183.507 205.961 183.269 205.924 182.98 205.924C182.588 205.924 182.228 205.952 181.902 206.008C181.575 206.064 181.309 206.129 181.104 206.204L180.894 204.832C181.108 204.757 181.421 204.683 181.832 204.608C182.242 204.533 182.681 204.496 183.148 204.496ZM190.738 212.14C190.234 212.131 189.814 212.075 189.478 211.972C189.152 211.869 188.89 211.725 188.694 211.538C188.498 211.342 188.358 211.104 188.274 210.824C188.2 210.535 188.162 210.208 188.162 209.844V201.416L189.856 201.136V209.522C189.856 209.727 189.87 209.9 189.898 210.04C189.936 210.18 189.996 210.301 190.08 210.404C190.164 210.497 190.276 210.572 190.416 210.628C190.566 210.675 190.752 210.712 190.976 210.74L190.738 212.14ZM195.208 208.374C195.208 207.73 195.301 207.165 195.488 206.68C195.684 206.195 195.941 205.793 196.258 205.476C196.575 205.149 196.939 204.907 197.35 204.748C197.761 204.58 198.181 204.496 198.61 204.496C199.618 204.496 200.402 204.809 200.962 205.434C201.531 206.059 201.816 206.993 201.816 208.234C201.816 208.327 201.811 208.435 201.802 208.556C201.802 208.668 201.797 208.771 201.788 208.864H196.958C197.005 209.452 197.21 209.909 197.574 210.236C197.947 210.553 198.484 210.712 199.184 210.712C199.595 210.712 199.968 210.675 200.304 210.6C200.649 210.525 200.92 210.446 201.116 210.362L201.34 211.748C201.247 211.795 201.116 211.846 200.948 211.902C200.789 211.949 200.603 211.991 200.388 212.028C200.183 212.075 199.959 212.112 199.716 212.14C199.473 212.168 199.226 212.182 198.974 212.182C198.33 212.182 197.77 212.089 197.294 211.902C196.818 211.706 196.426 211.44 196.118 211.104C195.81 210.759 195.581 210.357 195.432 209.9C195.283 209.433 195.208 208.925 195.208 208.374ZM200.122 207.618C200.122 207.385 200.089 207.165 200.024 206.96C199.959 206.745 199.861 206.563 199.73 206.414C199.609 206.255 199.455 206.134 199.268 206.05C199.091 205.957 198.876 205.91 198.624 205.91C198.363 205.91 198.134 205.961 197.938 206.064C197.742 206.157 197.574 206.283 197.434 206.442C197.303 206.601 197.201 206.783 197.126 206.988C197.051 207.193 197 207.403 196.972 207.618H200.122ZM207.784 208.15C207.784 207.385 207.686 206.834 207.49 206.498C207.304 206.153 206.949 205.98 206.426 205.98C206.24 205.98 206.034 205.994 205.81 206.022C205.586 206.05 205.418 206.073 205.306 206.092V212H203.612V204.916C203.939 204.823 204.364 204.734 204.886 204.65C205.418 204.566 205.978 204.524 206.566 204.524C207.07 204.524 207.481 204.589 207.798 204.72C208.125 204.851 208.396 205.023 208.61 205.238C208.713 205.163 208.844 205.084 209.002 205C209.161 204.916 209.338 204.841 209.534 204.776C209.73 204.701 209.936 204.641 210.15 204.594C210.374 204.547 210.598 204.524 210.822 204.524C211.392 204.524 211.858 204.608 212.222 204.776C212.596 204.935 212.885 205.163 213.09 205.462C213.305 205.751 213.45 206.106 213.524 206.526C213.608 206.937 213.65 207.389 213.65 207.884V212H211.956V208.15C211.956 207.385 211.863 206.834 211.676 206.498C211.49 206.153 211.13 205.98 210.598 205.98C210.328 205.98 210.071 206.027 209.828 206.12C209.586 206.204 209.404 206.288 209.282 206.372C209.357 206.605 209.408 206.853 209.436 207.114C209.464 207.375 209.478 207.655 209.478 207.954V212H207.784V208.15ZM217.433 212H215.739V204.678H217.433V212ZM217.615 202.536C217.615 202.853 217.513 203.105 217.307 203.292C217.102 203.479 216.859 203.572 216.579 203.572C216.29 203.572 216.043 203.479 215.837 203.292C215.632 203.105 215.529 202.853 215.529 202.536C215.529 202.209 215.632 201.953 215.837 201.766C216.043 201.579 216.29 201.486 216.579 201.486C216.859 201.486 217.102 201.579 217.307 201.766C217.513 201.953 217.615 202.209 217.615 202.536ZM221.429 210.782C221.877 210.782 222.203 210.731 222.409 210.628C222.614 210.516 222.717 210.329 222.717 210.068C222.717 209.825 222.605 209.625 222.381 209.466C222.166 209.307 221.807 209.135 221.303 208.948C220.995 208.836 220.71 208.719 220.449 208.598C220.197 208.467 219.977 208.318 219.791 208.15C219.604 207.982 219.455 207.781 219.343 207.548C219.24 207.305 219.189 207.011 219.189 206.666C219.189 205.994 219.436 205.467 219.931 205.084C220.425 204.692 221.097 204.496 221.947 204.496C222.376 204.496 222.787 204.538 223.179 204.622C223.571 204.697 223.865 204.771 224.061 204.846L223.753 206.218C223.566 206.134 223.328 206.059 223.039 205.994C222.749 205.919 222.413 205.882 222.031 205.882C221.685 205.882 221.405 205.943 221.191 206.064C220.976 206.176 220.869 206.353 220.869 206.596C220.869 206.717 220.887 206.825 220.925 206.918C220.971 207.011 221.046 207.1 221.149 207.184C221.251 207.259 221.387 207.338 221.555 207.422C221.723 207.497 221.928 207.576 222.171 207.66C222.572 207.809 222.913 207.959 223.193 208.108C223.473 208.248 223.701 208.411 223.879 208.598C224.065 208.775 224.201 208.981 224.285 209.214C224.369 209.447 224.411 209.727 224.411 210.054C224.411 210.754 224.149 211.286 223.627 211.65C223.113 212.005 222.376 212.182 221.415 212.182C220.771 212.182 220.253 212.126 219.861 212.014C219.469 211.911 219.193 211.827 219.035 211.762L219.329 210.348C219.581 210.451 219.879 210.549 220.225 210.642C220.579 210.735 220.981 210.782 221.429 210.782ZM227.827 210.782C228.275 210.782 228.602 210.731 228.807 210.628C229.012 210.516 229.115 210.329 229.115 210.068C229.115 209.825 229.003 209.625 228.779 209.466C228.564 209.307 228.205 209.135 227.701 208.948C227.393 208.836 227.108 208.719 226.847 208.598C226.595 208.467 226.376 208.318 226.189 208.15C226.002 207.982 225.853 207.781 225.741 207.548C225.638 207.305 225.587 207.011 225.587 206.666C225.587 205.994 225.834 205.467 226.329 205.084C226.824 204.692 227.496 204.496 228.345 204.496C228.774 204.496 229.185 204.538 229.577 204.622C229.969 204.697 230.263 204.771 230.459 204.846L230.151 206.218C229.964 206.134 229.726 206.059 229.437 205.994C229.148 205.919 228.812 205.882 228.429 205.882C228.084 205.882 227.804 205.943 227.589 206.064C227.374 206.176 227.267 206.353 227.267 206.596C227.267 206.717 227.286 206.825 227.323 206.918C227.37 207.011 227.444 207.1 227.547 207.184C227.65 207.259 227.785 207.338 227.953 207.422C228.121 207.497 228.326 207.576 228.569 207.66C228.97 207.809 229.311 207.959 229.591 208.108C229.871 208.248 230.1 208.411 230.277 208.598C230.464 208.775 230.599 208.981 230.683 209.214C230.767 209.447 230.809 209.727 230.809 210.054C230.809 210.754 230.548 211.286 230.025 211.65C229.512 212.005 228.774 212.182 227.813 212.182C227.169 212.182 226.651 212.126 226.259 212.014C225.867 211.911 225.592 211.827 225.433 211.762L225.727 210.348C225.979 210.451 226.278 210.549 226.623 210.642C226.978 210.735 227.379 210.782 227.827 210.782ZM234.099 212H232.405V204.678H234.099V212ZM234.281 202.536C234.281 202.853 234.179 203.105 233.973 203.292C233.768 203.479 233.525 203.572 233.245 203.572C232.956 203.572 232.709 203.479 232.503 203.292C232.298 203.105 232.195 202.853 232.195 202.536C232.195 202.209 232.298 201.953 232.503 201.766C232.709 201.579 232.956 201.486 233.245 201.486C233.525 201.486 233.768 201.579 233.973 201.766C234.179 201.953 234.281 202.209 234.281 202.536ZM242.883 208.332C242.883 208.911 242.799 209.438 242.631 209.914C242.463 210.39 242.225 210.796 241.917 211.132C241.609 211.468 241.235 211.729 240.797 211.916C240.367 212.103 239.891 212.196 239.369 212.196C238.846 212.196 238.37 212.103 237.941 211.916C237.511 211.729 237.143 211.468 236.835 211.132C236.527 210.796 236.284 210.39 236.107 209.914C235.939 209.438 235.855 208.911 235.855 208.332C235.855 207.753 235.939 207.231 236.107 206.764C236.284 206.288 236.527 205.882 236.835 205.546C237.152 205.21 237.525 204.953 237.955 204.776C238.384 204.589 238.855 204.496 239.369 204.496C239.882 204.496 240.353 204.589 240.783 204.776C241.221 204.953 241.595 205.21 241.903 205.546C242.211 205.882 242.449 206.288 242.617 206.764C242.794 207.231 242.883 207.753 242.883 208.332ZM241.147 208.332C241.147 207.604 240.988 207.03 240.671 206.61C240.363 206.181 239.929 205.966 239.369 205.966C238.809 205.966 238.37 206.181 238.053 206.61C237.745 207.03 237.591 207.604 237.591 208.332C237.591 209.069 237.745 209.653 238.053 210.082C238.37 210.511 238.809 210.726 239.369 210.726C239.929 210.726 240.363 210.511 240.671 210.082C240.988 209.653 241.147 209.069 241.147 208.332ZM244.628 204.916C244.954 204.823 245.379 204.734 245.902 204.65C246.424 204.566 247.003 204.524 247.638 204.524C248.235 204.524 248.734 204.608 249.136 204.776C249.537 204.935 249.854 205.163 250.088 205.462C250.33 205.751 250.498 206.106 250.592 206.526C250.694 206.937 250.746 207.389 250.746 207.884V212H249.052V208.15C249.052 207.758 249.024 207.427 248.968 207.156C248.921 206.876 248.837 206.652 248.716 206.484C248.604 206.307 248.445 206.181 248.24 206.106C248.044 206.022 247.801 205.98 247.512 205.98C247.297 205.98 247.073 205.994 246.84 206.022C246.606 206.05 246.434 206.073 246.322 206.092V212H244.628V204.916Z" fill="white"/>
<path d="M150.306 237.02C150.693 236.86 151.093 236.68 151.506 236.48C151.933 236.267 152.346 236.04 152.746 235.8C153.146 235.547 153.526 235.287 153.886 235.02C154.26 234.74 154.593 234.447 154.886 234.14H156.966V248H153.986V238.02C153.586 238.287 153.14 238.533 152.646 238.76C152.153 238.973 151.673 239.16 151.206 239.32L150.306 237.02ZM170.953 241.04C170.953 243.373 170.507 245.167 169.613 246.42C168.733 247.66 167.513 248.28 165.953 248.28C164.393 248.28 163.167 247.66 162.273 246.42C161.393 245.167 160.953 243.373 160.953 241.04C160.953 239.88 161.067 238.853 161.293 237.96C161.533 237.067 161.873 236.313 162.313 235.7C162.753 235.087 163.28 234.62 163.893 234.3C164.507 233.98 165.193 233.82 165.953 233.82C167.513 233.82 168.733 234.447 169.613 235.7C170.507 236.94 170.953 238.72 170.953 241.04ZM167.913 241.04C167.913 240.347 167.88 239.72 167.813 239.16C167.747 238.587 167.64 238.093 167.493 237.68C167.347 237.267 167.147 236.947 166.893 236.72C166.64 236.493 166.327 236.38 165.953 236.38C165.58 236.38 165.267 236.493 165.013 236.72C164.773 236.947 164.573 237.267 164.413 237.68C164.267 238.093 164.16 238.587 164.093 239.16C164.027 239.72 163.993 240.347 163.993 241.04C163.993 241.733 164.027 242.367 164.093 242.94C164.16 243.513 164.267 244.007 164.413 244.42C164.573 244.833 164.773 245.153 165.013 245.38C165.267 245.607 165.58 245.72 165.953 245.72C166.327 245.72 166.64 245.607 166.893 245.38C167.147 245.153 167.347 244.833 167.493 244.42C167.64 244.007 167.747 243.513 167.813 242.94C167.88 242.367 167.913 241.733 167.913 241.04ZM182.321 241.04C182.321 243.373 181.874 245.167 180.981 246.42C180.101 247.66 178.881 248.28 177.321 248.28C175.761 248.28 174.534 247.66 173.641 246.42C172.761 245.167 172.321 243.373 172.321 241.04C172.321 239.88 172.434 238.853 172.661 237.96C172.901 237.067 173.241 236.313 173.681 235.7C174.121 235.087 174.647 234.62 175.261 234.3C175.874 233.98 176.561 233.82 177.321 233.82C178.881 233.82 180.101 234.447 180.981 235.7C181.874 236.94 182.321 238.72 182.321 241.04ZM179.281 241.04C179.281 240.347 179.247 239.72 179.181 239.16C179.114 238.587 179.007 238.093 178.861 237.68C178.714 237.267 178.514 236.947 178.261 236.72C178.007 236.493 177.694 236.38 177.321 236.38C176.947 236.38 176.634 236.493 176.381 236.72C176.141 236.947 175.941 237.267 175.781 237.68C175.634 238.093 175.527 238.587 175.461 239.16C175.394 239.72 175.361 240.347 175.361 241.04C175.361 241.733 175.394 242.367 175.461 242.94C175.527 243.513 175.634 244.007 175.781 244.42C175.941 244.833 176.141 245.153 176.381 245.38C176.634 245.607 176.947 245.72 177.321 245.72C177.694 245.72 178.007 245.607 178.261 245.38C178.514 245.153 178.714 244.833 178.861 244.42C179.007 244.007 179.114 243.513 179.181 242.94C179.247 242.367 179.281 241.733 179.281 241.04ZM198.493 241.04C198.493 243.373 198.046 245.167 197.153 246.42C196.273 247.66 195.053 248.28 193.493 248.28C191.933 248.28 190.706 247.66 189.813 246.42C188.933 245.167 188.493 243.373 188.493 241.04C188.493 239.88 188.606 238.853 188.833 237.96C189.073 237.067 189.413 236.313 189.853 235.7C190.293 235.087 190.819 234.62 191.433 234.3C192.046 233.98 192.733 233.82 193.493 233.82C195.053 233.82 196.273 234.447 197.153 235.7C198.046 236.94 198.493 238.72 198.493 241.04ZM195.453 241.04C195.453 240.347 195.419 239.72 195.353 239.16C195.286 238.587 195.179 238.093 195.033 237.68C194.886 237.267 194.686 236.947 194.433 236.72C194.179 236.493 193.866 236.38 193.493 236.38C193.119 236.38 192.806 236.493 192.553 236.72C192.313 236.947 192.113 237.267 191.953 237.68C191.806 238.093 191.699 238.587 191.633 239.16C191.566 239.72 191.533 240.347 191.533 241.04C191.533 241.733 191.566 242.367 191.633 242.94C191.699 243.513 191.806 244.007 191.953 244.42C192.113 244.833 192.313 245.153 192.553 245.38C192.806 245.607 193.119 245.72 193.493 245.72C193.866 245.72 194.179 245.607 194.433 245.38C194.686 245.153 194.886 244.833 195.033 244.42C195.179 244.007 195.286 243.513 195.353 242.94C195.419 242.367 195.453 241.733 195.453 241.04ZM209.86 241.04C209.86 243.373 209.413 245.167 208.52 246.42C207.64 247.66 206.42 248.28 204.86 248.28C203.3 248.28 202.073 247.66 201.18 246.42C200.3 245.167 199.86 243.373 199.86 241.04C199.86 239.88 199.973 238.853 200.2 237.96C200.44 237.067 200.78 236.313 201.22 235.7C201.66 235.087 202.186 234.62 202.8 234.3C203.413 233.98 204.1 233.82 204.86 233.82C206.42 233.82 207.64 234.447 208.52 235.7C209.413 236.94 209.86 238.72 209.86 241.04ZM206.82 241.04C206.82 240.347 206.786 239.72 206.72 239.16C206.653 238.587 206.546 238.093 206.4 237.68C206.253 237.267 206.053 236.947 205.8 236.72C205.546 236.493 205.233 236.38 204.86 236.38C204.486 236.38 204.173 236.493 203.92 236.72C203.68 236.947 203.48 237.267 203.32 237.68C203.173 238.093 203.066 238.587 203 239.16C202.933 239.72 202.9 240.347 202.9 241.04C202.9 241.733 202.933 242.367 203 242.94C203.066 243.513 203.173 244.007 203.32 244.42C203.48 244.833 203.68 245.153 203.92 245.38C204.173 245.607 204.486 245.72 204.86 245.72C205.233 245.72 205.546 245.607 205.8 245.38C206.053 245.153 206.253 244.833 206.4 244.42C206.546 244.007 206.653 243.513 206.72 242.94C206.786 242.367 206.82 241.733 206.82 241.04ZM221.227 241.04C221.227 243.373 220.78 245.167 219.887 246.42C219.007 247.66 217.787 248.28 216.227 248.28C214.667 248.28 213.44 247.66 212.547 246.42C211.667 245.167 211.227 243.373 211.227 241.04C211.227 239.88 211.34 238.853 211.567 237.96C211.807 237.067 212.147 236.313 212.587 235.7C213.027 235.087 213.554 234.62 214.167 234.3C214.78 233.98 215.467 233.82 216.227 233.82C217.787 233.82 219.007 234.447 219.887 235.7C220.78 236.94 221.227 238.72 221.227 241.04ZM218.187 241.04C218.187 240.347 218.154 239.72 218.087 239.16C218.02 238.587 217.914 238.093 217.767 237.68C217.62 237.267 217.42 236.947 217.167 236.72C216.914 236.493 216.6 236.38 216.227 236.38C215.854 236.38 215.54 236.493 215.287 236.72C215.047 236.947 214.847 237.267 214.687 237.68C214.54 238.093 214.434 238.587 214.367 239.16C214.3 239.72 214.267 240.347 214.267 241.04C214.267 241.733 214.3 242.367 214.367 242.94C214.434 243.513 214.54 244.007 214.687 244.42C214.847 244.833 215.047 245.153 215.287 245.38C215.54 245.607 215.854 245.72 216.227 245.72C216.6 245.72 216.914 245.607 217.167 245.38C217.42 245.153 217.62 244.833 217.767 244.42C217.914 244.007 218.02 243.513 218.087 242.94C218.154 242.367 218.187 241.733 218.187 241.04ZM237.399 241.04C237.399 243.373 236.952 245.167 236.059 246.42C235.179 247.66 233.959 248.28 232.399 248.28C230.839 248.28 229.612 247.66 228.719 246.42C227.839 245.167 227.399 243.373 227.399 241.04C227.399 239.88 227.512 238.853 227.739 237.96C227.979 237.067 228.319 236.313 228.759 235.7C229.199 235.087 229.725 234.62 230.339 234.3C230.952 233.98 231.639 233.82 232.399 233.82C233.959 233.82 235.179 234.447 236.059 235.7C236.952 236.94 237.399 238.72 237.399 241.04ZM234.359 241.04C234.359 240.347 234.325 239.72 234.259 239.16C234.192 238.587 234.085 238.093 233.939 237.68C233.792 237.267 233.592 236.947 233.339 236.72C233.085 236.493 232.772 236.38 232.399 236.38C232.025 236.38 231.712 236.493 231.459 236.72C231.219 236.947 231.019 237.267 230.859 237.68C230.712 238.093 230.605 238.587 230.539 239.16C230.472 239.72 230.439 240.347 230.439 241.04C230.439 241.733 230.472 242.367 230.539 242.94C230.605 243.513 230.712 244.007 230.859 244.42C231.019 244.833 231.219 245.153 231.459 245.38C231.712 245.607 232.025 245.72 232.399 245.72C232.772 245.72 233.085 245.607 233.339 245.38C233.592 245.153 233.792 244.833 233.939 244.42C234.085 244.007 234.192 243.513 234.259 242.94C234.325 242.367 234.359 241.733 234.359 241.04ZM248.766 241.04C248.766 243.373 248.319 245.167 247.426 246.42C246.546 247.66 245.326 248.28 243.766 248.28C242.206 248.28 240.979 247.66 240.086 246.42C239.206 245.167 238.766 243.373 238.766 241.04C238.766 239.88 238.879 238.853 239.106 237.96C239.346 237.067 239.686 236.313 240.126 235.7C240.566 235.087 241.093 234.62 241.706 234.3C242.319 233.98 243.006 233.82 243.766 233.82C245.326 233.82 246.546 234.447 247.426 235.7C248.319 236.94 248.766 238.72 248.766 241.04ZM245.726 241.04C245.726 240.347 245.693 239.72 245.626 239.16C245.559 238.587 245.453 238.093 245.306 237.68C245.159 237.267 244.959 236.947 244.706 236.72C244.453 236.493 244.139 236.38 243.766 236.38C243.393 236.38 243.079 236.493 242.826 236.72C242.586 236.947 242.386 237.267 242.226 237.68C242.079 238.093 241.973 238.587 241.906 239.16C241.839 239.72 241.806 240.347 241.806 241.04C241.806 241.733 241.839 242.367 241.906 242.94C241.973 243.513 242.079 244.007 242.226 244.42C242.386 244.833 242.586 245.153 242.826 245.38C243.079 245.607 243.393 245.72 243.766 245.72C244.139 245.72 244.453 245.607 244.706 245.38C244.959 245.153 245.159 244.833 245.306 244.42C245.453 244.007 245.559 243.513 245.626 242.94C245.693 242.367 245.726 241.733 245.726 241.04ZM260.133 241.04C260.133 243.373 259.686 245.167 258.793 246.42C257.913 247.66 256.693 248.28 255.133 248.28C253.573 248.28 252.346 247.66 251.453 246.42C250.573 245.167 250.133 243.373 250.133 241.04C250.133 239.88 250.246 238.853 250.473 237.96C250.713 237.067 251.053 236.313 251.493 235.7C251.933 235.087 252.46 234.62 253.073 234.3C253.686 233.98 254.373 233.82 255.133 233.82C256.693 233.82 257.913 234.447 258.793 235.7C259.686 236.94 260.133 238.72 260.133 241.04ZM257.093 241.04C257.093 240.347 257.06 239.72 256.993 239.16C256.926 238.587 256.82 238.093 256.673 237.68C256.526 237.267 256.326 236.947 256.073 236.72C255.82 236.493 255.506 236.38 255.133 236.38C254.76 236.38 254.446 236.493 254.193 236.72C253.953 236.947 253.753 237.267 253.593 237.68C253.446 238.093 253.34 238.587 253.273 239.16C253.206 239.72 253.173 240.347 253.173 241.04C253.173 241.733 253.206 242.367 253.273 242.94C253.34 243.513 253.446 244.007 253.593 244.42C253.753 244.833 253.953 245.153 254.193 245.38C254.446 245.607 254.76 245.72 255.133 245.72C255.506 245.72 255.82 245.607 256.073 245.38C256.326 245.153 256.526 244.833 256.673 244.42C256.82 244.007 256.926 243.513 256.993 242.94C257.06 242.367 257.093 241.733 257.093 241.04Z" fill="white"/>
<path d="M16.3749 102.412C16.8389 102.228 17.3029 101.992 17.7669 101.704C18.2389 101.416 18.6549 101.076 19.0149 100.684H20.0349V109H18.5829V102.628C18.3669 102.796 18.0949 102.96 17.7669 103.12C17.4389 103.28 17.1229 103.412 16.8189 103.516L16.3749 102.412ZM26.7112 106.624C26.7112 106.36 26.6592 106.124 26.5552 105.916C26.4512 105.708 26.2672 105.532 26.0032 105.388C25.7472 105.244 25.3992 105.136 24.9592 105.064C24.5272 104.992 23.9792 104.956 23.3152 104.956C23.4032 104.188 23.4712 103.46 23.5192 102.772C23.5672 102.076 23.6072 101.38 23.6392 100.684H27.8872V101.908H24.8752C24.8672 102.044 24.8552 102.2 24.8392 102.376C24.8312 102.544 24.8192 102.716 24.8032 102.892C24.7952 103.068 24.7832 103.236 24.7672 103.396C24.7512 103.556 24.7352 103.692 24.7192 103.804C25.9032 103.868 26.7752 104.14 27.3352 104.62C27.9032 105.092 28.1872 105.74 28.1872 106.564C28.1872 106.94 28.1232 107.288 27.9952 107.608C27.8672 107.928 27.6712 108.204 27.4072 108.436C27.1432 108.668 26.8112 108.852 26.4112 108.988C26.0112 109.116 25.5432 109.18 25.0072 109.18C24.7912 109.18 24.5712 109.164 24.3472 109.132C24.1232 109.1 23.9072 109.06 23.6992 109.012C23.4992 108.972 23.3192 108.928 23.1592 108.88C22.9992 108.832 22.8792 108.788 22.7992 108.748L23.0752 107.524C23.2432 107.604 23.4832 107.692 23.7952 107.788C24.1152 107.876 24.5032 107.92 24.9592 107.92C25.2712 107.92 25.5392 107.888 25.7632 107.824C25.9872 107.752 26.1672 107.656 26.3032 107.536C26.4472 107.416 26.5512 107.28 26.6152 107.128C26.6792 106.968 26.7112 106.8 26.7112 106.624ZM33.5315 102.772C33.5315 103.5 33.3435 104.06 32.9675 104.452C32.5995 104.844 32.1155 105.04 31.5155 105.04C31.2195 105.04 30.9475 104.992 30.6995 104.896C30.4515 104.792 30.2395 104.644 30.0635 104.452C29.8875 104.26 29.7475 104.024 29.6435 103.744C29.5475 103.456 29.4995 103.132 29.4995 102.772C29.4995 102.036 29.6835 101.476 30.0515 101.092C30.4275 100.7 30.9155 100.504 31.5155 100.504C32.1155 100.504 32.5995 100.7 32.9675 101.092C33.3435 101.476 33.5315 102.036 33.5315 102.772ZM32.3915 102.772C32.3915 102.348 32.3115 102.032 32.1515 101.824C31.9995 101.608 31.7875 101.5 31.5155 101.5C31.2435 101.5 31.0315 101.608 30.8795 101.824C30.7275 102.032 30.6515 102.348 30.6515 102.772C30.6515 103.196 30.7275 103.516 30.8795 103.732C31.0315 103.94 31.2435 104.044 31.5155 104.044C31.7875 104.044 31.9995 103.94 32.1515 103.732C32.3115 103.516 32.3915 103.196 32.3915 102.772ZM35.9675 100.684H37.3475L32.6555 109H31.2755L35.9675 100.684ZM39.1355 106.924C39.1355 107.652 38.9475 108.212 38.5715 108.604C38.2035 108.996 37.7195 109.192 37.1195 109.192C36.8235 109.192 36.5515 109.14 36.3035 109.036C36.0555 108.94 35.8435 108.796 35.6675 108.604C35.4915 108.412 35.3515 108.176 35.2475 107.896C35.1515 107.608 35.1035 107.284 35.1035 106.924C35.1035 106.188 35.2875 105.628 35.6555 105.244C36.0315 104.852 36.5195 104.656 37.1195 104.656C37.7195 104.656 38.2035 104.852 38.5715 105.244C38.9475 105.628 39.1355 106.188 39.1355 106.924ZM37.9955 106.924C37.9955 106.5 37.9155 106.184 37.7555 105.976C37.6035 105.76 37.3915 105.652 37.1195 105.652C36.8475 105.652 36.6355 105.76 36.4835 105.976C36.3315 106.184 36.2555 106.5 36.2555 106.924C36.2555 107.348 36.3315 107.668 36.4835 107.884C36.6355 108.092 36.8475 108.196 37.1195 108.196C37.3915 108.196 37.6035 108.092 37.7555 107.884C37.9155 107.668 37.9955 107.348 37.9955 106.924Z" fill="#397A9B"/>
<path d="M13.3749 335.412C13.8389 335.228 14.3029 334.992 14.7669 334.704C15.2389 334.416 15.6549 334.076 16.0149 333.684H17.0349V342H15.5829V335.628C15.3669 335.796 15.0949 335.96 14.7669 336.12C14.4389 336.28 14.1229 336.412 13.8189 336.516L13.3749 335.412ZM22.4992 337.956C22.2672 337.956 22.0432 337.976 21.8272 338.016C21.6112 338.056 21.4152 338.116 21.2392 338.196C21.2312 338.26 21.2232 338.332 21.2152 338.412C21.2152 338.484 21.2152 338.556 21.2152 338.628C21.2152 338.948 21.2352 339.252 21.2752 339.54C21.3232 339.82 21.3992 340.068 21.5032 340.284C21.6152 340.492 21.7632 340.66 21.9472 340.788C22.1392 340.908 22.3752 340.968 22.6552 340.968C22.8872 340.968 23.0832 340.92 23.2432 340.824C23.4112 340.728 23.5472 340.604 23.6512 340.452C23.7552 340.3 23.8312 340.136 23.8792 339.96C23.9272 339.776 23.9512 339.6 23.9512 339.432C23.9512 338.952 23.8352 338.588 23.6032 338.34C23.3712 338.084 23.0032 337.956 22.4992 337.956ZM22.6792 336.804C23.1752 336.804 23.5952 336.876 23.9392 337.02C24.2912 337.156 24.5752 337.344 24.7912 337.584C25.0072 337.824 25.1632 338.104 25.2592 338.424C25.3632 338.736 25.4152 339.064 25.4152 339.408C25.4152 339.72 25.3592 340.04 25.2472 340.368C25.1432 340.696 24.9752 340.996 24.7432 341.268C24.5192 341.532 24.2352 341.752 23.8912 341.928C23.5472 342.096 23.1392 342.18 22.6672 342.18C21.7152 342.18 20.9872 341.868 20.4832 341.244C19.9872 340.612 19.7392 339.744 19.7392 338.64C19.7392 337.84 19.8552 337.132 20.0872 336.516C20.3272 335.892 20.6632 335.368 21.0952 334.944C21.5352 334.52 22.0632 334.2 22.6792 333.984C23.3032 333.76 24.0032 333.644 24.7792 333.636L24.8632 334.836C24.4312 334.844 24.0272 334.892 23.6512 334.98C23.2752 335.06 22.9392 335.188 22.6432 335.364C22.3472 335.54 22.0912 335.768 21.8752 336.048C21.6672 336.328 21.5072 336.672 21.3952 337.08C21.7872 336.896 22.2152 336.804 22.6792 336.804ZM30.5315 335.772C30.5315 336.5 30.3435 337.06 29.9675 337.452C29.5995 337.844 29.1155 338.04 28.5155 338.04C28.2195 338.04 27.9475 337.992 27.6995 337.896C27.4515 337.792 27.2395 337.644 27.0635 337.452C26.8875 337.26 26.7475 337.024 26.6435 336.744C26.5475 336.456 26.4995 336.132 26.4995 335.772C26.4995 335.036 26.6835 334.476 27.0515 334.092C27.4275 333.7 27.9155 333.504 28.5155 333.504C29.1155 333.504 29.5995 333.7 29.9675 334.092C30.3435 334.476 30.5315 335.036 30.5315 335.772ZM29.3915 335.772C29.3915 335.348 29.3115 335.032 29.1515 334.824C28.9995 334.608 28.7875 334.5 28.5155 334.5C28.2435 334.5 28.0315 334.608 27.8795 334.824C27.7275 335.032 27.6515 335.348 27.6515 335.772C27.6515 336.196 27.7275 336.516 27.8795 336.732C28.0315 336.94 28.2435 337.044 28.5155 337.044C28.7875 337.044 28.9995 336.94 29.1515 336.732C29.3115 336.516 29.3915 336.196 29.3915 335.772ZM32.9675 333.684H34.3475L29.6555 342H28.2755L32.9675 333.684ZM36.1355 339.924C36.1355 340.652 35.9475 341.212 35.5715 341.604C35.2035 341.996 34.7195 342.192 34.1195 342.192C33.8235 342.192 33.5515 342.14 33.3035 342.036C33.0555 341.94 32.8435 341.796 32.6675 341.604C32.4915 341.412 32.3515 341.176 32.2475 340.896C32.1515 340.608 32.1035 340.284 32.1035 339.924C32.1035 339.188 32.2875 338.628 32.6555 338.244C33.0315 337.852 33.5195 337.656 34.1195 337.656C34.7195 337.656 35.2035 337.852 35.5715 338.244C35.9475 338.628 36.1355 339.188 36.1355 339.924ZM34.9955 339.924C34.9955 339.5 34.9155 339.184 34.7555 338.976C34.6035 338.76 34.3915 338.652 34.1195 338.652C33.8475 338.652 33.6355 338.76 33.4835 338.976C33.3315 339.184 33.2555 339.5 33.2555 339.924C33.2555 340.348 33.3315 340.668 33.4835 340.884C33.6355 341.092 33.8475 341.196 34.1195 341.196C34.3915 341.196 34.6035 341.092 34.7555 340.884C34.9155 340.668 34.9955 340.348 34.9955 339.924Z" fill="#60C652"/>
<path d="M241.906 77.404L257.406 28.904L285.906 15.4039" stroke="#3C3DB0"/>
<path d="M183.978 73.1025L171.251 23.8023L144.906 8.3545" stroke="#7BFA91"/>
<path d="M64.1947 255.991L43.2232 270.424L22.2517 284.857L22.2517 325" stroke="#60C652"/>
<path d="M316.056 305.808L335.198 322.592L354.34 339.376L354.34 370" stroke="#294A7E"/>
<path d="M333.719 215.974L371.719 196L396.719 196" stroke="#9A35F6"/>
<path d="M324.719 158.478L362.719 138.505L387.719 138.505" stroke="#2B52F6"/>
<path d="M198.347 349.904L198.012 400.82" stroke="#6EE1FB"/>
<path d="M198.44 350L198.106 400.916" stroke="#6EE1FB"/>
<path d="M299.719 116.478L337.719 96.5048L362.719 96.5048" stroke="#477DE6"/>
<path d="M93.2755 131.183L44.5801 113.284L14.9998 114.826" stroke="#397A9B"/>
<path d="M122.375 4.412C122.839 4.228 123.303 3.992 123.767 3.704C124.239 3.416 124.655 3.076 125.015 2.684H126.035V11H124.583V4.628C124.367 4.796 124.095 4.96 123.767 5.12C123.439 5.28 123.123 5.412 122.819 5.516L122.375 4.412ZM132.711 8.624C132.711 8.36 132.659 8.124 132.555 7.916C132.451 7.708 132.267 7.532 132.003 7.388C131.747 7.244 131.399 7.136 130.959 7.064C130.527 6.992 129.979 6.956 129.315 6.956C129.403 6.188 129.471 5.46 129.519 4.772C129.567 4.076 129.607 3.38 129.639 2.684H133.887V3.908H130.875C130.867 4.044 130.855 4.2 130.839 4.376C130.831 4.544 130.819 4.716 130.803 4.892C130.795 5.068 130.783 5.236 130.767 5.396C130.751 5.556 130.735 5.692 130.719 5.804C131.903 5.868 132.775 6.14 133.335 6.62C133.903 7.092 134.187 7.74 134.187 8.564C134.187 8.94 134.123 9.288 133.995 9.608C133.867 9.928 133.671 10.204 133.407 10.436C133.143 10.668 132.811 10.852 132.411 10.988C132.011 11.116 131.543 11.18 131.007 11.18C130.791 11.18 130.571 11.164 130.347 11.132C130.123 11.1 129.907 11.06 129.699 11.012C129.499 10.972 129.319 10.928 129.159 10.88C128.999 10.832 128.879 10.788 128.799 10.748L129.075 9.524C129.243 9.604 129.483 9.692 129.795 9.788C130.115 9.876 130.503 9.92 130.959 9.92C131.271 9.92 131.539 9.888 131.763 9.824C131.987 9.752 132.167 9.656 132.303 9.536C132.447 9.416 132.551 9.28 132.615 9.128C132.679 8.968 132.711 8.8 132.711 8.624ZM139.532 4.772C139.532 5.5 139.344 6.06 138.968 6.452C138.6 6.844 138.116 7.04 137.516 7.04C137.22 7.04 136.948 6.992 136.7 6.896C136.452 6.792 136.24 6.644 136.064 6.452C135.888 6.26 135.748 6.024 135.644 5.744C135.548 5.456 135.5 5.132 135.5 4.772C135.5 4.036 135.684 3.476 136.052 3.092C136.428 2.7 136.916 2.504 137.516 2.504C138.116 2.504 138.6 2.7 138.968 3.092C139.344 3.476 139.532 4.036 139.532 4.772ZM138.392 4.772C138.392 4.348 138.312 4.032 138.152 3.824C138 3.608 137.788 3.5 137.516 3.5C137.244 3.5 137.032 3.608 136.88 3.824C136.728 4.032 136.652 4.348 136.652 4.772C136.652 5.196 136.728 5.516 136.88 5.732C137.032 5.94 137.244 6.044 137.516 6.044C137.788 6.044 138 5.94 138.152 5.732C138.312 5.516 138.392 5.196 138.392 4.772ZM141.968 2.684H143.348L138.656 11H137.276L141.968 2.684ZM145.136 8.924C145.136 9.652 144.948 10.212 144.572 10.604C144.204 10.996 143.72 11.192 143.12 11.192C142.824 11.192 142.552 11.14 142.304 11.036C142.056 10.94 141.844 10.796 141.668 10.604C141.492 10.412 141.352 10.176 141.248 9.896C141.152 9.608 141.104 9.284 141.104 8.924C141.104 8.188 141.288 7.628 141.656 7.244C142.032 6.852 142.52 6.656 143.12 6.656C143.72 6.656 144.204 6.852 144.572 7.244C144.948 7.628 145.136 8.188 145.136 8.924ZM143.996 8.924C143.996 8.5 143.916 8.184 143.756 7.976C143.604 7.76 143.392 7.652 143.12 7.652C142.848 7.652 142.636 7.76 142.484 7.976C142.332 8.184 142.256 8.5 142.256 8.924C142.256 9.348 142.332 9.668 142.484 9.884C142.636 10.092 142.848 10.196 143.12 10.196C143.392 10.196 143.604 10.092 143.756 9.884C143.916 9.668 143.996 9.348 143.996 8.924Z" fill="#7BFA91"/>
<path d="M296.801 15.624C296.801 15.36 296.749 15.124 296.645 14.916C296.541 14.708 296.357 14.532 296.093 14.388C295.837 14.244 295.489 14.136 295.049 14.064C294.617 13.992 294.069 13.956 293.405 13.956C293.493 13.188 293.561 12.46 293.609 11.772C293.657 11.076 293.697 10.38 293.729 9.684H297.977V10.908H294.965C294.957 11.044 294.945 11.2 294.929 11.376C294.921 11.544 294.909 11.716 294.893 11.892C294.885 12.068 294.873 12.236 294.857 12.396C294.841 12.556 294.825 12.692 294.809 12.804C295.993 12.868 296.865 13.14 297.425 13.62C297.993 14.092 298.277 14.74 298.277 15.564C298.277 15.94 298.213 16.288 298.085 16.608C297.957 16.928 297.761 17.204 297.497 17.436C297.233 17.668 296.901 17.852 296.501 17.988C296.101 18.116 295.633 18.18 295.097 18.18C294.881 18.18 294.661 18.164 294.437 18.132C294.213 18.1 293.997 18.06 293.789 18.012C293.589 17.972 293.409 17.928 293.249 17.88C293.089 17.832 292.969 17.788 292.889 17.748L293.165 16.524C293.333 16.604 293.573 16.692 293.885 16.788C294.205 16.876 294.593 16.92 295.049 16.92C295.361 16.92 295.629 16.888 295.853 16.824C296.077 16.752 296.257 16.656 296.393 16.536C296.537 16.416 296.641 16.28 296.705 16.128C296.769 15.968 296.801 15.8 296.801 15.624ZM303.621 11.772C303.621 12.5 303.433 13.06 303.057 13.452C302.689 13.844 302.205 14.04 301.605 14.04C301.309 14.04 301.037 13.992 300.789 13.896C300.541 13.792 300.329 13.644 300.153 13.452C299.977 13.26 299.837 13.024 299.733 12.744C299.637 12.456 299.589 12.132 299.589 11.772C299.589 11.036 299.773 10.476 300.141 10.092C300.517 9.7 301.005 9.504 301.605 9.504C302.205 9.504 302.689 9.7 303.057 10.092C303.433 10.476 303.621 11.036 303.621 11.772ZM302.481 11.772C302.481 11.348 302.401 11.032 302.241 10.824C302.089 10.608 301.877 10.5 301.605 10.5C301.333 10.5 301.121 10.608 300.969 10.824C300.817 11.032 300.741 11.348 300.741 11.772C300.741 12.196 300.817 12.516 300.969 12.732C301.121 12.94 301.333 13.044 301.605 13.044C301.877 13.044 302.089 12.94 302.241 12.732C302.401 12.516 302.481 12.196 302.481 11.772ZM306.057 9.684H307.437L302.745 18H301.365L306.057 9.684ZM309.225 15.924C309.225 16.652 309.037 17.212 308.661 17.604C308.293 17.996 307.809 18.192 307.209 18.192C306.913 18.192 306.641 18.14 306.393 18.036C306.145 17.94 305.933 17.796 305.757 17.604C305.581 17.412 305.441 17.176 305.337 16.896C305.241 16.608 305.193 16.284 305.193 15.924C305.193 15.188 305.377 14.628 305.745 14.244C306.121 13.852 306.609 13.656 307.209 13.656C307.809 13.656 308.293 13.852 308.661 14.244C309.037 14.628 309.225 15.188 309.225 15.924ZM308.085 15.924C308.085 15.5 308.005 15.184 307.845 14.976C307.693 14.76 307.481 14.652 307.209 14.652C306.937 14.652 306.725 14.76 306.573 14.976C306.421 15.184 306.345 15.5 306.345 15.924C306.345 16.348 306.421 16.668 306.573 16.884C306.725 17.092 306.937 17.196 307.209 17.196C307.481 17.196 307.693 17.092 307.845 16.884C308.005 16.668 308.085 16.348 308.085 15.924Z" fill="#3C3DB0"/>
<path d="M351.375 85.412C351.839 85.228 352.303 84.992 352.767 84.704C353.239 84.416 353.655 84.076 354.015 83.684H355.035V92H353.583V85.628C353.367 85.796 353.095 85.96 352.767 86.12C352.439 86.28 352.123 86.412 351.819 86.516L351.375 85.412ZM363.415 87.836C363.415 89.236 363.159 90.312 362.647 91.064C362.135 91.808 361.427 92.18 360.523 92.18C359.619 92.18 358.911 91.808 358.399 91.064C357.887 90.312 357.631 89.236 357.631 87.836C357.631 87.14 357.695 86.524 357.823 85.988C357.959 85.444 358.151 84.988 358.399 84.62C358.655 84.252 358.959 83.972 359.311 83.78C359.671 83.588 360.075 83.492 360.523 83.492C361.427 83.492 362.135 83.868 362.647 84.62C363.159 85.364 363.415 86.436 363.415 87.836ZM361.915 87.836C361.915 87.404 361.891 87 361.843 86.624C361.795 86.248 361.715 85.924 361.603 85.652C361.499 85.372 361.359 85.152 361.183 84.992C361.007 84.832 360.787 84.752 360.523 84.752C360.259 84.752 360.035 84.832 359.851 84.992C359.675 85.152 359.531 85.372 359.419 85.652C359.315 85.924 359.239 86.248 359.191 86.624C359.151 87 359.131 87.404 359.131 87.836C359.131 88.268 359.151 88.672 359.191 89.048C359.239 89.424 359.315 89.752 359.419 90.032C359.531 90.304 359.675 90.52 359.851 90.68C360.035 90.84 360.259 90.92 360.523 90.92C360.787 90.92 361.007 90.84 361.183 90.68C361.359 90.52 361.499 90.304 361.603 90.032C361.715 89.752 361.795 89.424 361.843 89.048C361.891 88.672 361.915 88.268 361.915 87.836ZM368.532 85.772C368.532 86.5 368.344 87.06 367.968 87.452C367.6 87.844 367.116 88.04 366.516 88.04C366.22 88.04 365.948 87.992 365.7 87.896C365.452 87.792 365.24 87.644 365.064 87.452C364.888 87.26 364.748 87.024 364.644 86.744C364.548 86.456 364.5 86.132 364.5 85.772C364.5 85.036 364.684 84.476 365.052 84.092C365.428 83.7 365.916 83.504 366.516 83.504C367.116 83.504 367.6 83.7 367.968 84.092C368.344 84.476 368.532 85.036 368.532 85.772ZM367.392 85.772C367.392 85.348 367.312 85.032 367.152 84.824C367 84.608 366.788 84.5 366.516 84.5C366.244 84.5 366.032 84.608 365.88 84.824C365.728 85.032 365.652 85.348 365.652 85.772C365.652 86.196 365.728 86.516 365.88 86.732C366.032 86.94 366.244 87.044 366.516 87.044C366.788 87.044 367 86.94 367.152 86.732C367.312 86.516 367.392 86.196 367.392 85.772ZM370.968 83.684H372.348L367.656 92H366.276L370.968 83.684ZM374.136 89.924C374.136 90.652 373.948 91.212 373.572 91.604C373.204 91.996 372.72 92.192 372.12 92.192C371.824 92.192 371.552 92.14 371.304 92.036C371.056 91.94 370.844 91.796 370.668 91.604C370.492 91.412 370.352 91.176 370.248 90.896C370.152 90.608 370.104 90.284 370.104 89.924C370.104 89.188 370.288 88.628 370.656 88.244C371.032 87.852 371.52 87.656 372.12 87.656C372.72 87.656 373.204 87.852 373.572 88.244C373.948 88.628 374.136 89.188 374.136 89.924ZM372.996 89.924C372.996 89.5 372.916 89.184 372.756 88.976C372.604 88.76 372.392 88.652 372.12 88.652C371.848 88.652 371.636 88.76 371.484 88.976C371.332 89.184 371.256 89.5 371.256 89.924C371.256 90.348 371.332 90.668 371.484 90.884C371.636 91.092 371.848 91.196 372.12 91.196C372.392 91.196 372.604 91.092 372.756 90.884C372.916 90.668 372.996 90.348 372.996 89.924Z" fill="#477DE6"/>
<path d="M393.164 188.768C393.164 189.112 393.104 189.432 392.984 189.728C392.864 190.024 392.684 190.28 392.444 190.496C392.204 190.712 391.904 190.88 391.544 191C391.192 191.12 390.784 191.18 390.32 191.18C389.776 191.18 389.324 191.104 388.964 190.952C388.604 190.8 388.316 190.608 388.1 190.376C387.884 190.144 387.728 189.896 387.632 189.632C387.544 189.36 387.5 189.104 387.5 188.864C387.5 188.624 387.532 188.404 387.596 188.204C387.668 187.996 387.764 187.808 387.884 187.64C388.004 187.464 388.14 187.304 388.292 187.16C388.444 187.016 388.604 186.888 388.772 186.776C388.404 186.52 388.128 186.244 387.944 185.948C387.768 185.644 387.68 185.276 387.68 184.844C387.68 184.532 387.74 184.236 387.86 183.956C387.988 183.668 388.168 183.416 388.4 183.2C388.632 182.984 388.912 182.812 389.24 182.684C389.568 182.556 389.932 182.492 390.332 182.492C390.804 182.492 391.204 182.56 391.532 182.696C391.868 182.832 392.14 183.008 392.348 183.224C392.564 183.44 392.72 183.68 392.816 183.944C392.912 184.208 392.96 184.464 392.96 184.712C392.96 185.152 392.84 185.544 392.6 185.888C392.36 186.224 392.084 186.492 391.772 186.692C392.244 186.948 392.592 187.244 392.816 187.58C393.048 187.916 393.164 188.312 393.164 188.768ZM388.928 188.84C388.928 188.96 388.952 189.088 389 189.224C389.048 189.36 389.128 189.484 389.24 189.596C389.352 189.708 389.496 189.804 389.672 189.884C389.848 189.956 390.068 189.992 390.332 189.992C390.572 189.992 390.78 189.96 390.956 189.896C391.132 189.832 391.276 189.748 391.388 189.644C391.5 189.532 391.584 189.408 391.64 189.272C391.696 189.128 391.724 188.984 391.724 188.84C391.724 188.616 391.68 188.42 391.592 188.252C391.504 188.084 391.376 187.94 391.208 187.82C391.048 187.692 390.856 187.584 390.632 187.496C390.408 187.4 390.16 187.316 389.888 187.244C389.6 187.428 389.368 187.652 389.192 187.916C389.016 188.172 388.928 188.48 388.928 188.84ZM391.544 184.736C391.544 184.632 391.52 184.52 391.472 184.4C391.432 184.272 391.36 184.156 391.256 184.052C391.16 183.948 391.036 183.86 390.884 183.788C390.732 183.716 390.548 183.68 390.332 183.68C390.116 183.68 389.928 183.716 389.768 183.788C389.616 183.852 389.492 183.94 389.396 184.052C389.3 184.156 389.228 184.272 389.18 184.4C389.132 184.52 389.108 184.64 389.108 184.76C389.108 185.064 389.22 185.352 389.444 185.624C389.676 185.896 390.06 186.112 390.596 186.272C390.892 186.088 391.124 185.88 391.292 185.648C391.46 185.408 391.544 185.104 391.544 184.736ZM398.341 184.772C398.341 185.5 398.153 186.06 397.777 186.452C397.409 186.844 396.925 187.04 396.325 187.04C396.029 187.04 395.757 186.992 395.509 186.896C395.261 186.792 395.049 186.644 394.873 186.452C394.697 186.26 394.557 186.024 394.453 185.744C394.357 185.456 394.309 185.132 394.309 184.772C394.309 184.036 394.493 183.476 394.861 183.092C395.237 182.7 395.725 182.504 396.325 182.504C396.925 182.504 397.409 182.7 397.777 183.092C398.153 183.476 398.341 184.036 398.341 184.772ZM397.201 184.772C397.201 184.348 397.121 184.032 396.961 183.824C396.809 183.608 396.597 183.5 396.325 183.5C396.053 183.5 395.841 183.608 395.689 183.824C395.537 184.032 395.461 184.348 395.461 184.772C395.461 185.196 395.537 185.516 395.689 185.732C395.841 185.94 396.053 186.044 396.325 186.044C396.597 186.044 396.809 185.94 396.961 185.732C397.121 185.516 397.201 185.196 397.201 184.772ZM400.777 182.684H402.157L397.465 191H396.085L400.777 182.684ZM403.945 188.924C403.945 189.652 403.757 190.212 403.381 190.604C403.013 190.996 402.529 191.192 401.929 191.192C401.633 191.192 401.361 191.14 401.113 191.036C400.865 190.94 400.653 190.796 400.477 190.604C400.301 190.412 400.161 190.176 400.057 189.896C399.961 189.608 399.913 189.284 399.913 188.924C399.913 188.188 400.097 187.628 400.465 187.244C400.841 186.852 401.329 186.656 401.929 186.656C402.529 186.656 403.013 186.852 403.381 187.244C403.757 187.628 403.945 188.188 403.945 188.924ZM402.805 188.924C402.805 188.5 402.725 188.184 402.565 187.976C402.413 187.76 402.201 187.652 401.929 187.652C401.657 187.652 401.445 187.76 401.293 187.976C401.141 188.184 401.065 188.5 401.065 188.924C401.065 189.348 401.141 189.668 401.293 189.884C401.445 190.092 401.657 190.196 401.929 190.196C402.201 190.196 402.413 190.092 402.565 189.884C402.725 189.668 402.805 189.348 402.805 188.924Z" fill="#9A35F6"/>
<path d="M348.375 378.412C348.839 378.228 349.303 377.992 349.767 377.704C350.239 377.416 350.655 377.076 351.015 376.684H352.035V385H350.583V378.628C350.367 378.796 350.095 378.96 349.767 379.12C349.439 379.28 349.123 379.412 348.819 379.516L348.375 378.412ZM358.711 382.624C358.711 382.36 358.659 382.124 358.555 381.916C358.451 381.708 358.267 381.532 358.003 381.388C357.747 381.244 357.399 381.136 356.959 381.064C356.527 380.992 355.979 380.956 355.315 380.956C355.403 380.188 355.471 379.46 355.519 378.772C355.567 378.076 355.607 377.38 355.639 376.684H359.887V377.908H356.875C356.867 378.044 356.855 378.2 356.839 378.376C356.831 378.544 356.819 378.716 356.803 378.892C356.795 379.068 356.783 379.236 356.767 379.396C356.751 379.556 356.735 379.692 356.719 379.804C357.903 379.868 358.775 380.14 359.335 380.62C359.903 381.092 360.187 381.74 360.187 382.564C360.187 382.94 360.123 383.288 359.995 383.608C359.867 383.928 359.671 384.204 359.407 384.436C359.143 384.668 358.811 384.852 358.411 384.988C358.011 385.116 357.543 385.18 357.007 385.18C356.791 385.18 356.571 385.164 356.347 385.132C356.123 385.1 355.907 385.06 355.699 385.012C355.499 384.972 355.319 384.928 355.159 384.88C354.999 384.832 354.879 384.788 354.799 384.748L355.075 383.524C355.243 383.604 355.483 383.692 355.795 383.788C356.115 383.876 356.503 383.92 356.959 383.92C357.271 383.92 357.539 383.888 357.763 383.824C357.987 383.752 358.167 383.656 358.303 383.536C358.447 383.416 358.551 383.28 358.615 383.128C358.679 382.968 358.711 382.8 358.711 382.624ZM365.532 378.772C365.532 379.5 365.344 380.06 364.968 380.452C364.6 380.844 364.116 381.04 363.516 381.04C363.22 381.04 362.948 380.992 362.7 380.896C362.452 380.792 362.24 380.644 362.064 380.452C361.888 380.26 361.748 380.024 361.644 379.744C361.548 379.456 361.5 379.132 361.5 378.772C361.5 378.036 361.684 377.476 362.052 377.092C362.428 376.7 362.916 376.504 363.516 376.504C364.116 376.504 364.6 376.7 364.968 377.092C365.344 377.476 365.532 378.036 365.532 378.772ZM364.392 378.772C364.392 378.348 364.312 378.032 364.152 377.824C364 377.608 363.788 377.5 363.516 377.5C363.244 377.5 363.032 377.608 362.88 377.824C362.728 378.032 362.652 378.348 362.652 378.772C362.652 379.196 362.728 379.516 362.88 379.732C363.032 379.94 363.244 380.044 363.516 380.044C363.788 380.044 364 379.94 364.152 379.732C364.312 379.516 364.392 379.196 364.392 378.772ZM367.968 376.684H369.348L364.656 385H363.276L367.968 376.684ZM371.136 382.924C371.136 383.652 370.948 384.212 370.572 384.604C370.204 384.996 369.72 385.192 369.12 385.192C368.824 385.192 368.552 385.14 368.304 385.036C368.056 384.94 367.844 384.796 367.668 384.604C367.492 384.412 367.352 384.176 367.248 383.896C367.152 383.608 367.104 383.284 367.104 382.924C367.104 382.188 367.288 381.628 367.656 381.244C368.032 380.852 368.52 380.656 369.12 380.656C369.72 380.656 370.204 380.852 370.572 381.244C370.948 381.628 371.136 382.188 371.136 382.924ZM369.996 382.924C369.996 382.5 369.916 382.184 369.756 381.976C369.604 381.76 369.392 381.652 369.12 381.652C368.848 381.652 368.636 381.76 368.484 381.976C368.332 382.184 368.256 382.5 368.256 382.924C368.256 383.348 368.332 383.668 368.484 383.884C368.636 384.092 368.848 384.196 369.12 384.196C369.392 384.196 369.604 384.092 369.756 383.884C369.916 383.668 369.996 383.348 369.996 382.924Z" fill="#294A7E"/>
<path d="M194.067 410.844C194.067 411.132 194.007 411.416 193.887 411.696C193.767 411.968 193.611 412.236 193.419 412.5C193.235 412.756 193.023 413.008 192.783 413.256C192.543 413.496 192.303 413.732 192.063 413.964C191.935 414.084 191.791 414.228 191.631 414.396C191.471 414.564 191.319 414.732 191.175 414.9C191.031 415.068 190.907 415.232 190.803 415.392C190.699 415.544 190.643 415.672 190.635 415.776H194.331V417H189.039C189.031 416.936 189.027 416.86 189.027 416.772C189.027 416.676 189.027 416.604 189.027 416.556C189.027 416.172 189.087 415.82 189.207 415.5C189.335 415.172 189.499 414.868 189.699 414.588C189.899 414.308 190.123 414.044 190.371 413.796C190.619 413.548 190.867 413.304 191.115 413.064C191.307 412.88 191.491 412.7 191.667 412.524C191.843 412.348 191.995 412.176 192.123 412.008C192.259 411.832 192.367 411.656 192.447 411.48C192.527 411.296 192.567 411.108 192.567 410.916C192.567 410.5 192.447 410.204 192.207 410.028C191.967 409.852 191.675 409.764 191.331 409.764C191.107 409.764 190.899 409.796 190.707 409.86C190.515 409.924 190.343 410 190.191 410.088C190.047 410.176 189.919 410.268 189.807 410.364C189.695 410.452 189.611 410.524 189.555 410.58L188.835 409.56C189.171 409.24 189.563 408.984 190.011 408.792C190.467 408.592 190.955 408.492 191.475 408.492C192.363 408.492 193.015 408.704 193.431 409.128C193.855 409.544 194.067 410.116 194.067 410.844ZM201.415 412.836C201.415 414.236 201.159 415.312 200.647 416.064C200.135 416.808 199.427 417.18 198.523 417.18C197.619 417.18 196.911 416.808 196.399 416.064C195.887 415.312 195.631 414.236 195.631 412.836C195.631 412.14 195.695 411.524 195.823 410.988C195.959 410.444 196.151 409.988 196.399 409.62C196.655 409.252 196.959 408.972 197.311 408.78C197.671 408.588 198.075 408.492 198.523 408.492C199.427 408.492 200.135 408.868 200.647 409.62C201.159 410.364 201.415 411.436 201.415 412.836ZM199.915 412.836C199.915 412.404 199.891 412 199.843 411.624C199.795 411.248 199.715 410.924 199.603 410.652C199.499 410.372 199.359 410.152 199.183 409.992C199.007 409.832 198.787 409.752 198.523 409.752C198.259 409.752 198.035 409.832 197.851 409.992C197.675 410.152 197.531 410.372 197.419 410.652C197.315 410.924 197.239 411.248 197.191 411.624C197.151 412 197.131 412.404 197.131 412.836C197.131 413.268 197.151 413.672 197.191 414.048C197.239 414.424 197.315 414.752 197.419 415.032C197.531 415.304 197.675 415.52 197.851 415.68C198.035 415.84 198.259 415.92 198.523 415.92C198.787 415.92 199.007 415.84 199.183 415.68C199.359 415.52 199.499 415.304 199.603 415.032C199.715 414.752 199.795 414.424 199.843 414.048C199.891 413.672 199.915 413.268 199.915 412.836ZM206.532 410.772C206.532 411.5 206.344 412.06 205.968 412.452C205.6 412.844 205.116 413.04 204.516 413.04C204.22 413.04 203.948 412.992 203.7 412.896C203.452 412.792 203.24 412.644 203.064 412.452C202.888 412.26 202.748 412.024 202.644 411.744C202.548 411.456 202.5 411.132 202.5 410.772C202.5 410.036 202.684 409.476 203.052 409.092C203.428 408.7 203.916 408.504 204.516 408.504C205.116 408.504 205.6 408.7 205.968 409.092C206.344 409.476 206.532 410.036 206.532 410.772ZM205.392 410.772C205.392 410.348 205.312 410.032 205.152 409.824C205 409.608 204.788 409.5 204.516 409.5C204.244 409.5 204.032 409.608 203.88 409.824C203.728 410.032 203.652 410.348 203.652 410.772C203.652 411.196 203.728 411.516 203.88 411.732C204.032 411.94 204.244 412.044 204.516 412.044C204.788 412.044 205 411.94 205.152 411.732C205.312 411.516 205.392 411.196 205.392 410.772ZM208.968 408.684H210.348L205.656 417H204.276L208.968 408.684ZM212.136 414.924C212.136 415.652 211.948 416.212 211.572 416.604C211.204 416.996 210.72 417.192 210.12 417.192C209.824 417.192 209.552 417.14 209.304 417.036C209.056 416.94 208.844 416.796 208.668 416.604C208.492 416.412 208.352 416.176 208.248 415.896C208.152 415.608 208.104 415.284 208.104 414.924C208.104 414.188 208.288 413.628 208.656 413.244C209.032 412.852 209.52 412.656 210.12 412.656C210.72 412.656 211.204 412.852 211.572 413.244C211.948 413.628 212.136 414.188 212.136 414.924ZM210.996 414.924C210.996 414.5 210.916 414.184 210.756 413.976C210.604 413.76 210.392 413.652 210.12 413.652C209.848 413.652 209.636 413.76 209.484 413.976C209.332 414.184 209.256 414.5 209.256 414.924C209.256 415.348 209.332 415.668 209.484 415.884C209.636 416.092 209.848 416.196 210.12 416.196C210.392 416.196 210.604 416.092 210.756 415.884C210.916 415.668 210.996 415.348 210.996 414.924Z" fill="#6EE1FB"/>
<path d="M381.053 133C381.101 132.392 381.209 131.752 381.377 131.08C381.545 130.408 381.749 129.756 381.989 129.124C382.237 128.484 382.505 127.888 382.793 127.336C383.089 126.776 383.381 126.308 383.669 125.932H379.841V124.684H385.397V125.788C385.133 126.084 384.845 126.488 384.533 127C384.221 127.512 383.925 128.092 383.645 128.74C383.365 129.38 383.121 130.068 382.913 130.804C382.713 131.54 382.589 132.272 382.541 133H381.053ZM390.621 126.772C390.621 127.5 390.433 128.06 390.057 128.452C389.689 128.844 389.205 129.04 388.605 129.04C388.309 129.04 388.037 128.992 387.789 128.896C387.541 128.792 387.329 128.644 387.153 128.452C386.977 128.26 386.837 128.024 386.733 127.744C386.637 127.456 386.589 127.132 386.589 126.772C386.589 126.036 386.773 125.476 387.141 125.092C387.517 124.7 388.005 124.504 388.605 124.504C389.205 124.504 389.689 124.7 390.057 125.092C390.433 125.476 390.621 126.036 390.621 126.772ZM389.481 126.772C389.481 126.348 389.401 126.032 389.241 125.824C389.089 125.608 388.877 125.5 388.605 125.5C388.333 125.5 388.121 125.608 387.969 125.824C387.817 126.032 387.741 126.348 387.741 126.772C387.741 127.196 387.817 127.516 387.969 127.732C388.121 127.94 388.333 128.044 388.605 128.044C388.877 128.044 389.089 127.94 389.241 127.732C389.401 127.516 389.481 127.196 389.481 126.772ZM393.057 124.684H394.437L389.745 133H388.365L393.057 124.684ZM396.225 130.924C396.225 131.652 396.037 132.212 395.661 132.604C395.293 132.996 394.809 133.192 394.209 133.192C393.913 133.192 393.641 133.14 393.393 133.036C393.145 132.94 392.933 132.796 392.757 132.604C392.581 132.412 392.441 132.176 392.337 131.896C392.241 131.608 392.193 131.284 392.193 130.924C392.193 130.188 392.377 129.628 392.745 129.244C393.121 128.852 393.609 128.656 394.209 128.656C394.809 128.656 395.293 128.852 395.661 129.244C396.037 129.628 396.225 130.188 396.225 130.924ZM395.085 130.924C395.085 130.5 395.005 130.184 394.845 129.976C394.693 129.76 394.481 129.652 394.209 129.652C393.937 129.652 393.725 129.76 393.573 129.976C393.421 130.184 393.345 130.5 393.345 130.924C393.345 131.348 393.421 131.668 393.573 131.884C393.725 132.092 393.937 132.196 394.209 132.196C394.481 132.196 394.693 132.092 394.845 131.884C395.005 131.668 395.085 131.348 395.085 130.924Z" fill="#2B52F6"/>
</svg>
